<?xml version="1.0" standalone="no"?><!DOCTYPE svg PUBLIC "-//W3C//DTD SVG 1.1//EN" "http://www.w3.org/Graphics/SVG/1.1/DTD/svg11.dtd"><svg t="1610832743123" class="icon" viewBox="0 0 1027 1024" version="1.1" xmlns="http://www.w3.org/2000/svg" p-id="2304" xmlns:xlink="http://www.w3.org/1999/xlink" width="200.5859375" height="200"><defs><style type="text/css"></style></defs><path d="M892.25 562.4c0 7.65-6.3 13.95-13.95 13.95h-40.5c-7.65 0-13.95-6.3-13.95-13.95s6.3-13.95 13.95-13.95h40.5c7.65 0 13.95 6.3 13.95 13.95z m-571.5 169.2c0 11.25-8.55 19.8-19.8 19.8H91.7c-11.25 0-19.8-8.55-19.8-19.8s8.55-19.8 19.8-19.8h209.7c10.8 0 19.35 9 19.35 19.8z m44.1 60.3c0 11.25-8.55 19.8-19.8 19.8H230.3c-11.25 0-19.8-8.55-19.8-19.8s8.55-19.8 19.8-19.8h114.75c10.8 0.45 19.8 9.45 19.8 19.8z m-101.7-113.85c0 11.25-8.55 19.8-19.8 19.8H128.6c-11.25 0-19.8-8.55-19.8-19.8s8.55-19.8 19.8-19.8h114.75c10.8 0.45 19.8 9 19.8 19.8z m648.9-211.5c0 7.65-6.3 13.95-13.95 13.95H818c-7.65 0-13.95-6.3-13.95-13.95 0-7.65 6.3-13.95 13.95-13.95h80.1c7.65 0 13.95 6.3 13.95 13.95z m38.25 36.45c0 7.65-6.3 13.95-13.95 13.95h-156.15c-7.65 0-13.95-6.3-13.95-13.95 0-7.65 6.3-13.95 13.95-13.95h156.15c7.65 0 13.95 6.3 13.95 13.95z" fill="#E8F5E9" p-id="2305"></path><path d="M670.85 357.65H480.05v-14.85c0-18.45-14.85-33.3-33.3-33.3H308.15c-18.45 0-33.3 14.85-33.3 33.3V359c-13.95 3.6-25.2 16.2-25.2 32.4v153.9c0 18.45 14.85 33.3 33.3 33.3h388.35c18.45 0 33.3-14.85 33.3-33.3V390.05c0-17.1-15.3-32.4-33.75-32.4z" fill="#FFFFFF" p-id="2306"></path><path d="M670.85 583.1H282.5c-22.05 0-39.15-17.1-39.15-39.15V390.05c0-16.2 10.35-30.15 25.2-36v-11.7c0-22.05 17.1-39.15 39.15-39.15h138.6c22.05 0 39.15 17.1 39.15 39.15v9h184.95c22.05 0 39.15 17.1 39.15 39.15v153.9c0.9 21.15-16.65 38.7-38.7 38.7zM308.15 316.25c-14.85 0-27.9 12.6-27.9 27.9v20.7l-4.5 1.35c-11.7 1.35-19.8 12.6-19.8 24.3v153.9c0 14.85 12.6 27.9 27.9 27.9h388.35c14.85 0 27.9-12.6 27.9-27.9V390.05c0-14.85-12.6-27.9-27.9-27.9H475.55v-19.8c0-14.85-12.6-27.9-27.9-27.9h-139.5v1.8z" fill="#CCCCCC" p-id="2307"></path><path d="M670.85 583.1H282.5c-22.05 0-39.15-17.1-39.15-39.15V390.05c0-16.2 10.35-30.15 25.2-36v-11.7c0-22.05 17.1-39.15 39.15-39.15h138.6c22.05 0 39.15 17.1 39.15 39.15v9h184.95c22.05 0 39.15 17.1 39.15 39.15v153.9c0.9 21.15-16.65 38.7-38.7 38.7zM308.15 316.25c-14.85 0-27.9 12.6-27.9 27.9v20.7l-4.5 1.35c-11.7 1.35-19.8 12.6-19.8 24.3v153.9c0 14.85 12.6 27.9 27.9 27.9h388.35c14.85 0 27.9-12.6 27.9-27.9V390.05c0-14.85-12.6-27.9-27.9-27.9H475.55v-19.8c0-14.85-12.6-27.9-27.9-27.9h-139.5v1.8z" fill="#66BB6A" p-id="2308"></path><path d="M681.2 770.3H273.5c-16.2 0-30.15-11.7-32.4-25.2l-30.15-298.35c-2.25-18.45 11.7-32.4 30.15-32.4h471.6c18.45 0 32.4 14.85 30.15 32.4l-31.05 298.35c-0.45 13.5-14.4 25.2-30.6 25.2z" fill="#FFFFFF" p-id="2309"></path><path d="M681.2 776.15H273.5c-18.45 0-36-13.95-38.25-30.15l-30.15-298.35c-1.35-10.35 2.25-19.8 9-27.9s16.2-11.7 27.9-11.7h471.6c10.35 0 20.7 4.5 27.9 11.7 6.75 6.75 9 17.1 9 27.9l-31.05 298.35c-2.25 16.2-19.8 30.15-38.25 30.15zM241.1 420.2c-8.1 0-13.95 2.25-18.45 8.1-4.5 4.5-6.75 11.7-5.85 18.45l31.05 297c1.35 10.35 12.6 19.8 26.55 19.8h406.8c12.6 0 25.2-9 26.55-19.8l31.05-298.35c1.35-6.75-1.35-13.95-5.85-18.45-4.5-5.85-11.7-8.1-18.45-8.1H241.1v1.35z" fill="#CCCCCC" p-id="2310"></path><path d="M681.2 770.3H273.5c-16.2 0-30.15-11.7-32.4-25.2l-30.15-298.35c-2.25-18.45 11.7-32.4 30.15-32.4h471.6c18.45 0 32.4 14.85 30.15 32.4l-31.05 298.35c-0.45 13.5-14.4 25.2-30.6 25.2z" fill="#E8F5E9" p-id="2311"></path><path d="M681.2 776.15H273.5c-18.45 0-36-13.95-38.25-30.15l-30.15-298.35c-1.35-10.35 2.25-19.8 9-27.9s16.2-11.7 27.9-11.7h471.6c10.35 0 20.7 4.5 27.9 11.7 6.75 6.75 9 17.1 9 27.9l-31.05 298.35c-2.25 16.2-19.8 30.15-38.25 30.15zM241.1 420.2c-8.1 0-13.95 2.25-18.45 8.1-4.5 4.5-6.75 11.7-5.85 18.45l31.05 297c1.35 10.35 12.6 19.8 26.55 19.8h406.8c12.6 0 25.2-9 26.55-19.8l31.05-298.35c1.35-6.75-1.35-13.95-5.85-18.45-4.5-5.85-11.7-8.1-18.45-8.1H241.1v1.35z m526.05 425.25c-3.6 0-6.75-3.6-6.75-6.75v-36.9c0-3.6 3.6-6.75 6.75-6.75s6.75 3.6 6.75 6.75v36.9c-1.35 4.5-3.6 6.75-6.75 6.75z" fill="#66BB6A" p-id="2312"></path><path d="M791.45 821.15c0 3.6-3.6 6.75-6.75 6.75h-36.9c-3.6 0-6.75-3.6-6.75-6.75 0-3.6 3.6-6.75 6.75-6.75h36.9c3.15 0 6.75 3.6 6.75 6.75zM210.95 359.9c-3.6 0-6.75-3.6-6.75-6.75v-36.9c0-3.6 3.6-6.75 6.75-6.75 3.6 0 6.75 3.6 6.75 6.75v36.9c-0.9 3.6-3.15 6.75-6.75 6.75z" fill="#66BB6A" p-id="2313"></path><path d="M235.25 334.7c0 3.6-3.6 6.75-6.75 6.75h-36c-3.6 0-6.75-3.6-6.75-6.75 0-3.6 3.6-6.75 6.75-6.75h36.9c3.6-0.45 5.85 3.15 5.85 6.75z m571.05 100.35c-3.6 0-5.85-2.25-5.85-5.85v-22.95c0-3.6 2.25-5.85 5.85-5.85s5.85 2.25 5.85 5.85v22.95c-1.35 3.6-3.6 5.85-5.85 5.85z m0 49.95c-3.6 0-5.85-2.25-5.85-5.85v-22.95c0-3.6 2.25-5.85 5.85-5.85s5.85 2.25 5.85 5.85v22.95c-1.35 3.6-3.6 5.85-5.85 5.85z m-8.1-41.85c0 3.6-2.25 5.85-5.85 5.85h-22.95c-3.6 0-5.85-2.25-5.85-5.85s2.25-5.85 5.85-5.85h22.95c3.6 0 5.85 3.6 5.85 5.85z m49.5 0c0 3.6-2.25 5.85-5.85 5.85h-22.95c-3.6 0-5.85-2.25-5.85-5.85s2.25-5.85 5.85-5.85h22.95c2.7 0 5.85 3.6 5.85 5.85z" fill="#66BB6A" p-id="2314"></path><path d="M209.6 597.95l16.2-28.8 16.2 28.8 30.15 16.2-30.15 16.2-16.2 30.15-16.2-30.15-28.8-16.2 28.8-16.2z" fill="#FFFFFF" p-id="2315"></path><path d="M225.8 672.2l-20.7-36.9-36.9-20.7 36.9-20.7 20.7-36.9 20.7 36.9 36.9 20.7-36.9 20.7-20.7 36.9zM192.5 614.15l22.05 11.7 11.7 22.05 11.7-22.05 22.05-11.7-22.05-11.7-11.7-22.05-11.7 22.05-22.05 11.7z" fill="#999999" p-id="2316"></path><path d="M209.6 597.95l16.2-28.8 16.2 28.8 30.15 16.2-30.15 16.2-16.2 30.15-16.2-30.15-28.8-16.2 28.8-16.2z" fill="#F5F5F5" p-id="2317"></path><path d="M225.8 672.2l-20.7-36.9-36.9-20.7 36.9-20.7 20.7-36.9 20.7 36.9 36.9 20.7-36.9 20.7-20.7 36.9zM192.5 614.15l22.05 11.7 11.7 22.05 11.7-22.05 22.05-11.7-22.05-11.7-11.7-22.05-11.7 22.05-22.05 11.7z" fill="#66BB6A" p-id="2318"></path><path d="M356.3 513.8c0 4.95 2.7 9.45 6.75 12.15 4.5 2.25 9.45 2.25 13.95 0s6.75-7.2 6.75-12.15-2.7-9.45-6.75-12.15c-4.5-2.25-9.45-2.25-13.95 0s-6.75 7.2-6.75 12.15z" fill="#FFFFFF" p-id="2319"></path><path d="M370.25 533.6c-10.35 0-19.8-9-19.8-19.8 0-10.8 9-19.8 19.8-19.8 10.8 0 19.8 9 19.8 19.8 0 10.8-9 19.8-19.8 19.8z m0-27.9c-4.5 0-8.1 3.6-8.1 8.1s3.6 8.1 8.1 8.1 8.1-3.6 8.1-8.1-3.6-8.1-8.1-8.1z" fill="#66BB6A" p-id="2320"></path><path d="M570.5 513.8c0 7.65 6.3 13.95 13.95 13.95 7.65 0 13.95-6.3 13.95-13.95 0-7.65-6.3-13.95-13.95-13.95-8.1 0-13.95 6.3-13.95 13.95z" fill="#FFFFFF" p-id="2321"></path><path d="M584.45 533.6c-10.35 0-19.8-9-19.8-19.8 0-10.8 9-19.8 19.8-19.8 10.8 0 19.8 9 19.8 19.8 0 10.8-8.55 19.8-19.8 19.8z m0-27.9c-4.5 0-8.1 3.6-8.1 8.1s3.6 8.1 8.1 8.1 8.1-3.6 8.1-8.1c-0.45-4.5-3.6-8.1-8.1-8.1z" fill="#66BB6A" p-id="2322"></path><path d="M497.6 810.8c-14.85-14.85-12.6-39.15 3.6-55.35l113.4-108.45c13.95-12.6 34.65-12.6 47.25 0s12.6 34.65 0 47.25l-108.9 112.95c-16.2 16.2-41.4 17.55-55.35 3.6z" fill="#FFFFFF" p-id="2323"></path><path d="M521.9 826.1c-11.7 0-20.7-4.5-28.8-11.7-8.1-8.1-11.7-18.45-11.7-28.8 0-12.6 5.85-25.2 14.85-34.65l113.4-108.45c14.85-14.85 40.5-14.85 55.35 0 14.85 14.85 14.85 40.5 0 55.35l-108.45 113.4c-9 9-22.05 14.85-34.65 14.85z m115.65-184.05c-6.75 0-14.85 2.25-19.8 8.1l-113.4 109.8c-6.75 6.75-11.7 16.2-11.7 26.55 0 8.1 2.25 14.85 8.1 20.7 11.7 11.7 33.3 10.35 47.25-3.6l108.45-113.4c10.35-11.7 10.35-28.8 0-39.15-4.05-5.4-10.8-9-18.9-9z" fill="#66BB6A" p-id="2324"></path><path d="M573.65 600.65c0 74.25 59.85 134.1 134.1 134.1s134.1-59.85 134.1-134.1-59.85-134.1-134.1-134.1-134.1 59.85-134.1 134.1z" fill="#FFFFFF" p-id="2325"></path><path d="M707.75 739.25c-36.9 0-71.55-14.85-98.1-40.5-54.45-54.45-54.45-142.2 0-196.65 26.55-26.55 61.2-40.5 98.1-40.5s71.55 14.85 98.1 40.5c54.45 54.45 54.45 142.2 0 196.65-26.1 26.55-60.75 40.5-98.1 40.5z m0-267.3c-34.65 0-65.7 12.6-90 36.9-49.5 49.5-49.5 130.5 0 180.45 24.3 24.3 56.7 36.9 90 36.9s65.7-13.95 90-36.9c49.5-49.5 49.5-130.5 0-180.45-23.85-22.95-56.25-36.9-90-36.9z" fill="#66BB6A" p-id="2326"></path><path d="M579.5 600.65c0 70.65 57.6 128.25 128.25 128.25s128.25-57.6 128.25-128.25-57.6-128.25-128.25-128.25-128.25 57.15-128.25 128.25z" fill="#FFFFFF" p-id="2327"></path><path d="M602.9 600.65c0 37.8 20.25 72.45 52.65 90.9 32.4 18.9 72.45 18.9 105.3 0 32.4-18.9 52.65-53.55 52.65-90.9 0-37.8-20.25-72.45-52.65-90.9-32.4-18.9-72.45-18.9-105.3 0-32.85 18.45-52.65 53.1-52.65 90.9z" fill="#FFFFFF" p-id="2328"></path><path d="M707.75 711.35c-30.15 0-58.05-11.7-78.75-32.4s-32.4-48.6-32.4-78.75 11.7-58.05 32.4-78.75 48.6-32.4 78.75-32.4c30.15 0 58.05 11.7 78.75 32.4s32.4 48.6 32.4 78.75-11.7 58.05-32.4 78.75c-20.7 21.15-49.5 32.4-78.75 32.4z m0-211.5c-26.55 0-51.75 10.35-70.65 28.8-18.45 18.45-28.8 44.1-28.8 70.65s10.35 51.75 28.8 70.65c18.45 18.45 44.1 28.8 70.65 28.8 26.55 0 51.75-10.35 70.65-28.8 18.45-18.45 28.8-44.1 28.8-70.65s-10.35-51.75-28.8-70.65c-19.8-18.45-43.65-28.8-70.65-28.8z" fill="#66BB6A" p-id="2329"></path><path d="M607.4 599.75c0 36 18.9 69.3 49.95 87.3 31.05 18 69.3 18.45 100.8 0.45 31.05-18 50.4-50.85 50.85-86.85 0.45-55.35-44.55-100.8-99.9-101.25-56.25 0-101.25 45-101.7 100.35z" fill="#E8F5E9" p-id="2330"></path><path d="M533.6 761.3c-3.6-3.6-3.6-8.1 0-11.7l49.5-49.5c3.6-3.6 8.1-3.6 11.7 0s3.6 8.1 0 11.7l-49.5 49.5c-2.7 3.15-8.55 3.15-11.7 0z m-21.15 11.25c0 4.95 4.05 9 9 9s9-4.05 9-9-4.05-9-9-9c-4.5 0-9 4.05-9 9z m145.8-229.95c-0.9 0-0.9 0 0 0-3.6-3.6-2.25-8.1 1.35-10.35 33.3-24.3 78.75-20.7 108.45 8.1 2.25 2.25 2.25 6.75 0 10.35-2.25 2.25-6.75 2.25-10.35 0-24.3-24.3-62.55-26.55-90-6.75-3.6 2.25-7.2 2.25-9.45-1.35m-31.05 50.85c-1.35-1.35-2.25-3.6-2.25-5.85 1.35-8.1 3.6-16.2 8.1-24.3 1.35-3.6 5.85-4.5 9-3.6 3.6 1.35 4.5 5.85 3.6 9-3.6 5.85-5.85 12.6-6.75 19.8-1.35 3.6-4.5 6.75-8.1 5.85-1.35 0.45-2.7 0.45-3.6-0.9" fill="#FFFFFF" p-id="2331"></path><path d="M570.5 672.2c-2.25 0-4.5-1.35-5.85-3.6-14.85-34.65-49.5-56.7-87.75-56.7s-71.55 22.05-87.75 56.7c-1.35 3.6-4.5 4.5-8.1 3.6-3.6-1.35-4.5-4.5-3.6-8.1 17.1-38.25 55.35-63.45 98.1-63.45s81 25.2 98.1 63.45c1.35 3.6 0 5.85-3.15 8.1 0.9 0 0 0 0 0zM380.6 126.35c0 4.95 4.05 9.45 9.45 9.9 4.95 0 9.45-4.05 9.9-9.45 0-4.95-4.05-9.45-9.45-9.45-5.85-0.9-9.9 3.6-9.9 9zM813.05 188c-7.65 0-13.5-5.85-13.5-13.5s5.85-13.5 13.5-13.5 13.5 5.85 13.5 13.5-6.3 13.5-13.5 13.5z" fill="#66BB6A" p-id="2332"></path><path d="M813.05 164.15c-5.4 0-9.9 4.5-9.9 9.9s4.5 9.9 9.9 9.9 9.9-4.5 9.9-9.9c0.45-4.95-4.5-9.9-9.9-9.9z" fill="#FFFFFF" p-id="2333"></path><path d="M786.5 311.3s-6.75 22.95-20.25 26.1c0 0 16.65 6.75 20.25 23.4 0 0 2.7-24.3 22.05-24.75 0 0.45-21.15-11.25-22.05-24.75z m92.7-27.9s-2.7 8.55-7.65 9.9c0 0 6.3 2.7 7.65 9 0 0 0.9-9.45 8.1-9.45-0.45 0-8.1-4.05-8.1-9.45z m-222.3-141.3s-4.95 17.1-15.75 19.8c0 0 13.05 4.95 15.75 18 0 0 2.25-18.45 16.65-18.9 0 0-15.75-9-16.65-18.9z" fill="#66BB6A" p-id="2334"></path></svg>